<svg width="25" height="28" viewBox="0 0 25 28" fill="none" xmlns="http://www.w3.org/2000/svg">
<path fill-rule="evenodd" clip-rule="evenodd" d="M12.991 0.849905C12.6678 0.78343 12.3344 0.78343 12.0112 0.849905C11.6376 0.926746 11.3037 1.11379 11.0382 1.26249L10.9658 1.30291L1.96807 6.30166C1.9432 6.31548 1.91757 6.3296 1.8913 6.34407C1.61027 6.49886 1.2569 6.69349 0.985542 6.98796C0.75093 7.24255 0.573382 7.54429 0.464771 7.87302C0.339147 8.25324 0.340616 8.65665 0.341785 8.97749C0.341894 9.00748 0.342001 9.03674 0.342001 9.0652V18.9349C0.342001 18.9633 0.341894 18.9926 0.341785 19.0226C0.340616 19.3434 0.339147 19.7469 0.464771 20.1271C0.573383 20.4558 0.750932 20.7575 0.985542 21.0121C1.2569 21.3066 1.61027 21.5012 1.8913 21.656C1.91757 21.6705 1.9432 21.6846 1.96808 21.6984L10.9658 26.6972L11.0382 26.7376C11.3037 26.8863 11.6376 27.0733 12.0112 27.1502C12.3344 27.2167 12.6678 27.2167 12.991 27.1502C13.3646 27.0733 13.6986 26.8863 13.9641 26.7376L14.0364 26.6972L23.0342 21.6984C23.0452 21.6923 23.0563 21.6861 23.0676 21.6799C23.0818 21.6721 23.0963 21.6641 23.1109 21.656C23.392 21.5012 23.7453 21.3066 24.0167 21.0121C24.2513 20.7575 24.4289 20.4558 24.5375 20.1271C24.6631 19.7469 24.6616 19.3434 24.6605 19.0226C24.6604 18.9926 24.6603 18.9633 24.6603 18.9349V9.0652C24.6603 9.03674 24.6604 9.00748 24.6605 8.9775C24.6616 8.65665 24.6631 8.25324 24.5375 7.87301C24.4289 7.54429 24.2513 7.24255 24.0167 6.98796C23.7453 6.69349 23.392 6.49885 23.1109 6.34406L23.11 6.34352C23.084 6.32924 23.0587 6.3153 23.0342 6.30166L14.0364 1.30291L13.9641 1.26248C13.6986 1.11378 13.3646 0.926746 12.991 0.849905ZM12.1468 3.42871C12.3311 3.32634 12.4251 3.27462 12.4953 3.24077L12.5011 3.23799L12.5069 3.24077C12.5771 3.27462 12.6712 3.32634 12.8554 3.42871L20.9406 7.92045L12.5011 12.6091L4.06164 7.92048L12.1468 3.42871ZM2.77383 9.98693L11.2852 14.7155L11.2852 24.0927L3.14907 19.5726C2.95459 19.4646 2.85529 19.4088 2.78562 19.3645L2.77974 19.3607L2.7793 19.3537C2.77433 19.2713 2.77383 19.1574 2.77383 18.9349V9.98693Z" fill="black"/>
</svg>
