<svg width="140" height="21" viewBox="0 0 140 21" fill="none" xmlns="http://www.w3.org/2000/svg">
<path d="M135.739 1.19238H140V19.7405H135.521L128.857 7.81279V19.7405H124.569V1.19238H129.048L135.739 13.2569V1.19238ZM107.69 0.699951C113.835 0.699951 117.468 5.35067 117.468 10.4391C117.468 15.5275 113.808 20.1782 107.69 20.1782C101.518 20.1782 97.8852 15.5275 97.8852 10.4391C97.8852 5.37802 101.545 0.699951 107.69 0.699951ZM113.126 10.4664C113.126 7.4298 111.049 4.58466 107.717 4.58466C104.331 4.58466 102.31 7.4298 102.31 10.4664C102.31 13.5031 104.358 16.3482 107.717 16.3482C111.049 16.3209 113.126 13.5031 113.126 10.4664ZM38.5369 4.88559V1.19238H51.2095V4.88559H47.0035V19.7131H42.7155V4.88559H38.5369ZM83.9293 8.85236H90.9482V12.2173H83.9566V16.2935H90.9482V19.7405H79.6684V1.19238H90.9482V4.63938H83.9566V8.85236H83.9293ZM65.6301 1.19238C69.7269 1.19238 72.3758 4.28373 72.3758 7.8949C72.3758 10.4938 71.0108 12.7918 68.689 13.8861L72.4031 19.7405H67.4327L64.1553 14.5974H62.1342V19.7405H57.8462V1.19238H65.6301ZM68.0336 7.8949C68.0336 6.17137 66.8592 4.6941 65.0839 4.6941H62.1615V11.0957H65.0839C66.8865 11.0957 68.0336 9.61837 68.0336 7.8949ZM30.1522 17.4699H23.5701L22.8599 19.7131H18.2988L24.9083 1.16502H28.8412L35.5326 19.7131H30.8896L30.1522 17.4699ZM26.8748 6.47231L24.6079 14.105H29.1143L26.8748 6.47231ZM7.75656 1.19238C11.8533 1.19238 14.5025 4.28373 14.5025 7.8949C14.5025 11.506 11.8533 14.5974 7.75656 14.5974H4.28794V19.7405H0V1.19238H7.75656ZM10.1873 7.8949C10.1873 6.17137 9.01285 4.6941 7.23758 4.6941H4.28794V11.0957H7.21028C9.01285 11.0957 10.1873 9.61837 10.1873 7.8949Z" fill="black"/>
</svg>
